<svg width="24" height="24" viewBox="0 0 24 24" fill="none" xmlns="http://www.w3.org/2000/svg">
<path d="M12 21C7.029 21 3 16.971 3 12C3 7.029 7.029 3 12 3C16.971 3 21 7.029 21 12" stroke="white" stroke-width="1.5" stroke-linecap="round" stroke-linejoin="round"/>
<path d="M3.51001 9H20.49" stroke="white" stroke-width="1.5" stroke-linecap="round" stroke-linejoin="round"/>
<path d="M3.51001 15H14" stroke="white" stroke-width="1.5" stroke-linecap="round" stroke-linejoin="round"/>
<path d="M16 12C16 9.23599 15.277 6.47199 13.833 4.05999C12.986 2.64699 11.014 2.64699 10.168 4.05999C7.27799 8.88499 7.27799 15.116 10.168 19.941C10.591 20.647 11.295 21 12 21" stroke="white" stroke-width="1.5" stroke-linecap="round" stroke-linejoin="round"/>
<path d="M20.775 20.55C20.651 20.55 20.55 20.652 20.55 20.775C20.55 20.898 20.651 21 20.775 21C20.898 21 21 20.899 20.999 20.775C21 20.651 20.9 20.55 20.775 20.55" stroke="white" stroke-width="1.5" stroke-linecap="round" stroke-linejoin="round"/>
<path d="M21 18C19.244 18.039 18.039 19.244 18 21" stroke="white" stroke-width="1.5" stroke-linecap="round" stroke-linejoin="round"/>
<path d="M15 21C15.009 20.241 15.137 19.53 15.367 18.879C15.955 17.214 17.214 15.955 18.88 15.366C19.53 15.137 20.241 15.009 21 15" stroke="white" stroke-width="1.5" stroke-linecap="round" stroke-linejoin="round"/>
</svg>
