<svg width="24" height="24" viewBox="0 0 24 24" fill="none" xmlns="http://www.w3.org/2000/svg">
<path d="M18.704 18.2924C19.323 18.9114 19.323 19.9144 18.704 20.5324C18.085 21.1514 17.082 21.1514 16.464 20.5324C15.845 19.9134 15.845 18.9104 16.464 18.2924C17.083 17.6734 18.086 17.6734 18.704 18.2924" stroke="#474752" stroke-width="1.5" stroke-linecap="round" stroke-linejoin="round"/>
<path d="M7.704 18.2998C8.323 18.9188 8.323 19.9218 7.704 20.5398C7.085 21.1588 6.082 21.1588 5.464 20.5398C4.846 19.9208 4.845 18.9178 5.464 18.2998C6.083 17.6818 7.085 17.6808 7.704 18.2998" stroke="#474752" stroke-width="1.5" stroke-linecap="round" stroke-linejoin="round"/>
<path d="M10 4H14C14.552 4 15 4.448 15 5V15H2" stroke="#474752" stroke-width="1.5" stroke-linecap="round" stroke-linejoin="round"/>
<path d="M5 19.416H3C2.448 19.416 2 18.968 2 18.416V13" stroke="#474752" stroke-width="1.5" stroke-linecap="round" stroke-linejoin="round"/>
<path d="M15 7H19.323C19.732 7 20.1 7.249 20.251 7.629L21.857 11.643C21.951 11.879 22 12.131 22 12.385V18.333C22 18.885 21.552 19.333 21 19.333H19.169" stroke="#474752" stroke-width="1.5" stroke-linecap="round" stroke-linejoin="round"/>
<path d="M16 19.4219H8.16998" stroke="#474752" stroke-width="1.5" stroke-linecap="round" stroke-linejoin="round"/>
<path d="M22 14H18V10H21.2" stroke="#474752" stroke-width="1.5" stroke-linecap="round" stroke-linejoin="round"/>
<path d="M2 4H7" stroke="#474752" stroke-width="1.5" stroke-linecap="round" stroke-linejoin="round"/>
<path d="M2 7H5" stroke="#474752" stroke-width="1.5" stroke-linecap="round" stroke-linejoin="round"/>
<path d="M3 10H2" stroke="#474752" stroke-width="1.5" stroke-linecap="round" stroke-linejoin="round"/>
</svg>
