<svg width="200" height="201" viewBox="0 0 200 201" fill="none" xmlns="http://www.w3.org/2000/svg">
<g clip-path="url(#clip0_9042_105819)">
<path d="M99.3925 56.7609C102.067 81.3594 84.2949 103.469 59.6964 106.144C35.0978 108.819 12.9883 91.0462 10.3134 66.4477C7.63844 41.8492 25.411 19.7397 50.0095 17.0648C74.608 14.3898 96.7175 32.1624 99.3925 56.7609Z" fill="url(#paint0_linear_9042_105819)"/>
<path d="M71.752 44.7074C70.1968 43.1522 67.6752 43.1522 66.12 44.7074L54.8561 55.9714L43.5921 44.7074C42.0369 43.1522 39.5154 43.1522 37.9601 44.7074C36.4049 46.2627 36.4049 48.7842 37.9601 50.3394L49.2241 61.6034L37.9601 72.8673C36.4049 74.4226 36.4049 76.9441 37.9601 78.4993C39.5154 80.0545 42.0369 80.0545 43.5921 78.4993L54.8561 67.2354L66.12 78.4993C67.6752 80.0545 70.1968 80.0545 71.752 78.4993C73.3072 76.9441 73.3072 74.4226 71.752 72.8673L60.488 61.6034L71.752 50.3394C73.3072 48.7842 73.3072 46.2627 71.752 44.7074Z" fill="white"/>
<g filter="url(#filter0_bi_9042_105819)">
<path fill-rule="evenodd" clip-rule="evenodd" d="M36.5163 97.4434C32.903 103.393 34.7833 111.089 38.5439 126.481L46.5214 159.131C50.282 174.523 52.1623 182.219 58.1122 185.832C64.062 189.446 71.7579 187.565 87.1496 183.805L168.776 163.861C184.168 160.1 191.864 158.22 195.477 152.27C199.09 146.32 197.21 138.624 193.449 123.233L185.472 90.582C181.711 75.1904 179.831 67.4945 173.881 63.8812C167.931 60.2679 160.235 62.1482 144.844 65.9089L63.2171 85.8526C47.8254 89.6132 40.1296 91.4935 36.5163 97.4434ZM134.498 94.3874C133.397 89.8793 136.159 85.3318 140.667 84.2304L156.992 80.2416C161.5 79.1402 166.048 81.9018 167.149 86.4099C168.251 90.918 165.489 95.4655 160.981 96.567L144.656 100.556C140.147 101.657 135.6 98.8955 134.498 94.3874ZM64.8412 163.304C63.7397 158.796 66.5014 154.249 71.0095 153.147L111.823 143.175C116.331 142.074 120.878 144.836 121.98 149.344C123.081 153.852 120.32 158.399 115.812 159.501L74.9982 169.473C70.4901 170.574 65.9426 167.812 64.8412 163.304Z" fill="url(#paint1_linear_9042_105819)" fill-opacity="0.4"/>
</g>
<g filter="url(#filter1_bi_9042_105819)">
<path fill-rule="evenodd" clip-rule="evenodd" d="M36.7536 108.21C37.2246 112.637 38.593 118.255 40.4868 126.006L48.4642 158.657C50.358 166.408 51.7346 172.024 53.3581 176.169C54.9604 180.261 56.6994 182.634 59.1503 184.123C61.6012 185.611 64.5095 186.06 68.8786 185.595C73.3055 185.124 78.9241 183.755 86.6749 181.862L168.302 161.918C176.052 160.024 181.669 158.648 185.814 157.024C189.905 155.422 192.279 153.683 193.768 151.232C195.256 148.781 195.705 145.873 195.24 141.504C194.769 137.077 193.4 131.458 191.507 123.707L183.529 91.0567C181.635 83.306 180.259 77.6894 178.635 73.5441C177.033 69.4529 175.294 67.0791 172.843 65.5907C170.392 64.1023 167.484 63.6538 163.115 64.1186C158.688 64.5896 153.069 65.958 145.318 67.8517L63.6918 87.7954C55.941 89.6892 50.3244 91.0658 46.1791 92.6893C42.0879 94.2916 39.7141 96.0306 38.2257 98.4815C36.7373 100.932 36.2888 103.841 36.7536 108.21ZM132.556 94.8621C131.192 89.281 134.611 83.6511 140.192 82.2875L156.517 78.2988C162.099 76.9351 167.728 80.3541 169.092 85.9352C170.456 91.5163 167.037 97.1462 161.456 98.5098L145.13 102.499C139.549 103.862 133.919 100.443 132.556 94.8621ZM62.8983 163.779C61.5347 158.198 64.9537 152.568 70.5348 151.204L111.348 141.233C116.929 139.869 122.559 143.288 123.923 148.869C125.286 154.45 121.867 160.08 116.286 161.444L75.4729 171.415C69.8918 172.779 64.262 169.36 62.8983 163.779ZM38.5439 126.481C34.7833 111.089 32.903 103.393 36.5163 97.4434C40.1296 91.4935 47.8254 89.6132 63.2171 85.8526L144.844 65.9089C160.235 62.1482 167.931 60.2679 173.881 63.8812C179.831 67.4945 181.711 75.1904 185.472 90.582L193.449 123.233C197.21 138.624 199.09 146.32 195.477 152.27C191.864 158.22 184.168 160.1 168.776 163.861L87.1496 183.805C71.7579 187.565 64.062 189.446 58.1122 185.832C52.1623 182.219 50.282 174.523 46.5214 159.131L38.5439 126.481ZM140.667 84.2304C136.159 85.3318 133.397 89.8793 134.498 94.3874C135.6 98.8955 140.147 101.657 144.656 100.556L160.981 96.567C165.489 95.4655 168.251 90.918 167.149 86.4099C166.048 81.9018 161.5 79.1402 156.992 80.2416L140.667 84.2304ZM71.0095 153.147C66.5014 154.249 63.7397 158.796 64.8412 163.304C65.9426 167.812 70.4901 170.574 74.9982 169.473L115.812 159.501C120.32 158.399 123.081 153.852 121.98 149.344C120.878 144.836 116.331 142.074 111.823 143.175L71.0095 153.147Z" fill="url(#paint2_linear_9042_105819)" fill-opacity="0.3"/>
</g>
</g>
<defs>
<filter id="filter0_bi_9042_105819" x="19.4534" y="46.8184" width="193.087" height="156.077" filterUnits="userSpaceOnUse" color-interpolation-filters="sRGB">
<feFlood flood-opacity="0" result="BackgroundImageFix"/>
<feGaussianBlur in="BackgroundImageFix" stdDeviation="7.5625"/>
<feComposite in2="SourceAlpha" operator="in" result="effect1_backgroundBlur_9042_105819"/>
<feBlend mode="normal" in="SourceGraphic" in2="effect1_backgroundBlur_9042_105819" result="shape"/>
<feColorMatrix in="SourceAlpha" type="matrix" values="0 0 0 0 0 0 0 0 0 0 0 0 0 0 0 0 0 0 127 0" result="hardAlpha"/>
<feOffset dy="2.10069"/>
<feGaussianBlur stdDeviation="5"/>
<feComposite in2="hardAlpha" operator="arithmetic" k2="-1" k3="1"/>
<feColorMatrix type="matrix" values="0 0 0 0 1 0 0 0 0 1 0 0 0 0 1 0 0 0 0.15 0"/>
<feBlend mode="normal" in2="shape" result="effect2_innerShadow_9042_105819"/>
</filter>
<filter id="filter1_bi_9042_105819" x="19.4534" y="46.8184" width="193.087" height="156.077" filterUnits="userSpaceOnUse" color-interpolation-filters="sRGB">
<feFlood flood-opacity="0" result="BackgroundImageFix"/>
<feGaussianBlur in="BackgroundImageFix" stdDeviation="7.5625"/>
<feComposite in2="SourceAlpha" operator="in" result="effect1_backgroundBlur_9042_105819"/>
<feBlend mode="normal" in="SourceGraphic" in2="effect1_backgroundBlur_9042_105819" result="shape"/>
<feColorMatrix in="SourceAlpha" type="matrix" values="0 0 0 0 0 0 0 0 0 0 0 0 0 0 0 0 0 0 127 0" result="hardAlpha"/>
<feOffset dy="2.10069"/>
<feGaussianBlur stdDeviation="5"/>
<feComposite in2="hardAlpha" operator="arithmetic" k2="-1" k3="1"/>
<feColorMatrix type="matrix" values="0 0 0 0 1 0 0 0 0 1 0 0 0 0 1 0 0 0 0.15 0"/>
<feBlend mode="normal" in2="shape" result="effect2_innerShadow_9042_105819"/>
</filter>
<linearGradient id="paint0_linear_9042_105819" x1="11.119" y1="39.3204" x2="109.689" y2="42.2476" gradientUnits="userSpaceOnUse">
<stop stop-color="#F76D86"/>
<stop offset="1" stop-color="#F5004A"/>
</linearGradient>
<linearGradient id="paint1_linear_9042_105819" x1="155.566" y1="42.5291" x2="157.116" y2="185.598" gradientUnits="userSpaceOnUse">
<stop stop-color="#FF6291"/>
<stop offset="0.913721" stop-color="#F5004A"/>
</linearGradient>
<linearGradient id="paint2_linear_9042_105819" x1="33.75" y1="76.125" x2="207.813" y2="182.375" gradientUnits="userSpaceOnUse">
<stop stop-color="white"/>
<stop offset="1" stop-color="#F5004A"/>
</linearGradient>
<clipPath id="clip0_9042_105819">
<rect y="0.5" width="200" height="200" fill="white"/>
</clipPath>
</defs>
</svg>
