<svg width="24" height="24" viewBox="0 0 24 24" fill="none" xmlns="http://www.w3.org/2000/svg">
<path d="M13.2515 15.2209L12.3942 16.0782C11.1591 17.3117 9.15835 17.3117 7.92331 16.0782V16.0782C6.68979 14.8432 6.68979 12.8424 7.92331 11.6074L8.78067 10.75" stroke="#474752" stroke-width="1.5" stroke-linecap="round" stroke-linejoin="round"/>
<path fill-rule="evenodd" clip-rule="evenodd" d="M16.0016 21.0036H7.9983C5.23572 21.0036 2.99622 18.7641 2.99622 16.0015V7.99818C2.99622 5.2356 5.23572 2.99609 7.9983 2.99609H16.0016C18.7642 2.99609 21.0037 5.2356 21.0037 7.99818V16.0015C21.0037 18.7641 18.7642 21.0036 16.0016 21.0036Z" stroke="#474752" stroke-width="1.5" stroke-linecap="round" stroke-linejoin="round"/>
<path d="M10.1722 13.8274L13.8278 10.1719" stroke="#323232" stroke-width="1.5" stroke-linecap="round" stroke-linejoin="round"/>
<path d="M10.7485 8.7825L11.6058 7.92514C12.8409 6.69162 14.8417 6.69162 16.0767 7.92514V7.92514C17.3102 9.16018 17.3102 11.161 16.0767 12.396L15.2193 13.2534" stroke="#323232" stroke-width="1.5" stroke-linecap="round" stroke-linejoin="round"/>
</svg>
