<svg width="16" height="16" viewBox="0 0 16 16" fill="none" xmlns="http://www.w3.org/2000/svg">
<path d="M4.33152 5.33203V7.9998" stroke="#474752" stroke-width="1.5" stroke-linecap="round" stroke-linejoin="round"/>
<path d="M6.77732 5.33203V7.9998" stroke="#474752" stroke-width="1.5" stroke-linecap="round" stroke-linejoin="round"/>
<path d="M9.22263 5.33203V7.9998" stroke="#474752" stroke-width="1.5" stroke-linecap="round" stroke-linejoin="round"/>
<path d="M4.66534 14.0037H3.99839C2.89336 14.0037 1.99756 13.1079 1.99756 12.0029V11.3359" stroke="#474752" stroke-width="1.5" stroke-linecap="round" stroke-linejoin="round"/>
<path d="M11.3345 1.99609H12.0014C13.1064 1.99609 14.0023 2.8919 14.0023 3.99693V4.66387" stroke="#474752" stroke-width="1.5" stroke-linecap="round" stroke-linejoin="round"/>
<path d="M1.99756 4.66387V3.99693C1.99756 2.8919 2.89336 1.99609 3.99839 1.99609H4.66534" stroke="#474752" stroke-width="1.5" stroke-linecap="round" stroke-linejoin="round"/>
<path d="M14.0023 11.3359V12.0029C14.0023 13.1079 13.1064 14.0037 12.0014 14.0037H11.3345" stroke="#474752" stroke-width="1.5" stroke-linecap="round" stroke-linejoin="round"/>
<path d="M4.33152 10V11.3339" stroke="#474752" stroke-width="1.5" stroke-linecap="round" stroke-linejoin="round"/>
<path d="M6.77732 10V11.3339" stroke="#474752" stroke-width="1.5" stroke-linecap="round" stroke-linejoin="round"/>
<path d="M9.22263 10.082V11.3326" stroke="#474752" stroke-width="1.5" stroke-linecap="round" stroke-linejoin="round"/>
<path d="M11.6679 10.082V11.3326" stroke="#474752" stroke-width="1.5" stroke-linecap="round" stroke-linejoin="round"/>
<path d="M11.6679 5.33203V7.9998" stroke="#474752" stroke-width="1.5" stroke-linecap="round" stroke-linejoin="round"/>
<path d="M0.88557 3.84629L14.727 13.2342" stroke="#474752" stroke-width="1.5" stroke-linecap="round" stroke-linejoin="round"/>
</svg>
